<?xml version="1.0" standalone="no"?>
<svg version="1.0" xmlns="http://www.w3.org/2000/svg" viewBox="0 0 2730.000000 2633.000000"
    preserveAspectRatio="xMidYMid meet">

    <g transform="translate(0.000000,2633.000000) scale(0.100000,-0.100000)" fill="rgba(255, 255, 245, 0.86)"
        stroke="none">
        <path d="M13450 26310 c-181 -38 -262 -84 -347 -197 -175 -230 -700 -1015
-1268 -1898 -343 -534 -625 -953 -1609 -2385 -487 -709 -671 -989 -787 -1195
-37 -66 -84 -147 -105 -180 -21 -33 -80 -127 -132 -210 -52 -82 -95 -151 -96
-152 -1 -1 -32 40 -68 91 -37 51 -102 136 -145 187 -263 318 -898 1252 -1323
1949 -291 477 -372 585 -483 640 -107 52 -245 83 -377 84 -102 0 -123 -3 -184
-27 -128 -51 -221 -132 -343 -302 -52 -72 -128 -198 -608 -1010 -781 -1321
-1397 -2343 -1861 -3087 -169 -271 -389 -626 -489 -788 -309 -500 -578 -923
-958 -1507 -128 -197 -268 -414 -312 -483 -94 -148 -100 -156 -145 -185 -87
-55 -228 -91 -583 -150 -636 -105 -811 -208 -921 -546 -191 -585 -340 -2576
-297 -3964 18 -565 41 -867 102 -1288 122 -849 315 -1443 754 -2312 342 -678
651 -1178 1039 -1680 250 -325 452 -553 760 -860 625 -624 1307 -1128 2151
-1592 519 -286 989 -492 1535 -674 837 -279 1785 -489 3330 -739 427 -69 581
-97 800 -146 909 -204 1650 -530 2275 -999 175 -132 271 -213 490 -415 265
-245 318 -282 400 -282 79 0 116 30 400 316 149 150 308 306 355 348 540 478
1058 736 1900 947 378 95 574 133 1650 316 1783 304 2728 526 3570 840 821
306 1784 869 2487 1457 172 143 500 462 682 663 897 988 1733 2284 2085 3232
193 520 325 1057 416 1692 90 630 110 988 110 2011 0 683 -13 1166 -40 1515
-11 138 -31 421 -45 630 -41 612 -76 862 -155 1096 -43 130 -69 165 -143 199
-159 71 -620 199 -991 275 -99 20 -208 45 -241 56 -82 25 -170 84 -227 150
-126 149 -624 892 -1228 1834 -341 532 -1934 3047 -2273 3590 -786 1257 -1038
1614 -1227 1738 -239 158 -644 125 -858 -68 -64 -59 -358 -492 -1332 -1965
-271 -410 -496 -749 -500 -753 -4 -5 -64 101 -132 235 -280 545 -354 664
-1199 1928 -813 1217 -2265 3344 -2467 3615 -41 55 -125 150 -186 211 -94 94
-124 117 -196 152 -133 66 -246 77 -410 42z m-1113 -6460 c40 -5 96 -17 125
-25 29 -9 71 -21 93 -27 55 -14 216 -74 295 -110 242 -109 457 -235 620 -364
30 -24 84 -67 120 -95 36 -29 69 -57 75 -64 5 -6 55 -52 110 -100 112 -99 350
-331 458 -445 39 -41 114 -118 167 -170 103 -102 329 -345 345 -371 6 -9 24
-35 40 -59 17 -24 37 -53 45 -65 15 -23 42 -56 130 -161 25 -29 92 -113 150
-185 58 -72 130 -159 160 -193 31 -33 67 -77 82 -96 14 -19 115 -132 224 -251
110 -120 215 -237 234 -260 19 -24 228 -253 465 -509 237 -256 446 -485 465
-510 19 -25 127 -144 239 -265 112 -121 215 -236 230 -255 14 -19 86 -100 160
-180 74 -80 156 -172 184 -205 27 -33 108 -125 181 -204 72 -79 136 -151 141
-161 6 -10 89 -104 185 -209 96 -105 209 -230 250 -277 348 -403 849 -893
1235 -1206 68 -56 108 -89 424 -347 84 -69 188 -153 231 -186 43 -33 126 -99
186 -148 104 -83 377 -299 481 -379 26 -21 95 -74 153 -119 58 -45 118 -90
133 -99 16 -10 59 -41 95 -69 37 -28 105 -80 152 -114 191 -141 258 -197 375
-312 136 -134 537 -563 598 -640 22 -27 105 -121 185 -208 81 -87 153 -168
162 -181 8 -13 56 -71 107 -127 171 -192 258 -293 268 -310 6 -9 43 -55 83
-101 114 -130 294 -345 362 -432 25 -32 65 -81 90 -109 25 -29 58 -68 72 -87
54 -72 467 -510 553 -586 184 -162 465 -446 465 -469 0 -5 11 -20 24 -34 34
-36 86 -137 102 -196 20 -75 19 -425 -2 -485 -20 -58 -30 -69 -84 -93 -42 -20
-68 -21 -388 -25 -363 -4 -455 2 -557 38 -33 12 -74 25 -92 29 -29 8 -179 75
-230 104 -216 121 -448 297 -649 494 -67 65 -231 237 -365 383 -134 145 -255
275 -269 288 -14 13 -59 56 -100 96 -41 39 -113 105 -160 146 -47 40 -87 76
-90 80 -3 4 -12 11 -22 16 -46 26 -298 268 -369 355 -36 44 -189 267 -189 275
0 5 -181 273 -214 317 -12 15 -40 50 -63 78 -24 27 -43 53 -43 58 0 14 -180
191 -270 267 -105 87 -217 174 -225 174 -3 0 -30 18 -60 40 -30 23 -63 44 -73
48 -45 18 -293 205 -427 321 -60 53 -189 174 -285 271 -233 233 -545 493 -865
720 -58 41 -117 85 -130 97 -14 12 -46 37 -72 54 -50 34 -245 195 -298 245
-16 16 -43 39 -60 52 -104 79 -747 716 -815 807 -20 28 -73 89 -116 137 -99
108 -205 237 -339 409 -22 28 -55 68 -72 89 -18 21 -33 41 -33 45 0 4 -17 27
-37 51 -95 111 -121 142 -148 179 -31 43 -85 107 -175 208 -31 34 -69 80 -85
102 -16 22 -54 67 -86 100 -32 33 -81 90 -111 127 -29 36 -113 132 -187 212
-74 81 -144 160 -157 177 -12 17 -98 113 -191 214 -180 196 -287 316 -398 449
-38 46 -102 119 -142 162 -40 44 -82 93 -95 111 -27 37 -159 190 -235 273 -29
31 -53 61 -53 66 -1 5 -30 41 -65 79 -36 39 -65 73 -65 78 0 4 -26 36 -57 71
-86 94 -214 243 -246 284 -16 21 -68 80 -115 132 -48 52 -95 106 -104 120 -8
14 -76 90 -150 170 -74 80 -139 152 -144 161 -18 33 -711 777 -867 931 -202
200 -331 300 -457 353 -72 30 -113 31 -163 5 -20 -11 -43 -20 -50 -20 -7 0
-35 -16 -62 -35 -28 -19 -66 -46 -85 -59 -52 -35 -398 -374 -466 -458 -32 -39
-86 -102 -119 -139 -75 -85 -144 -169 -231 -284 -37 -49 -79 -104 -93 -122
-14 -18 -53 -69 -86 -113 -33 -44 -87 -115 -120 -157 -33 -42 -82 -106 -110
-143 -64 -87 -120 -159 -225 -294 -141 -180 -148 -189 -196 -256 -26 -36 -61
-81 -79 -100 -17 -19 -38 -45 -46 -56 -8 -12 -68 -93 -134 -180 -197 -260
-232 -306 -271 -364 -21 -30 -52 -71 -68 -92 -17 -20 -52 -67 -79 -105 -97
-140 -230 -319 -271 -368 -24 -27 -52 -64 -62 -81 -11 -17 -36 -50 -56 -75
-35 -41 -61 -73 -155 -192 -21 -26 -58 -71 -83 -101 -25 -29 -79 -95 -120
-146 -41 -52 -97 -119 -125 -150 -27 -31 -86 -101 -130 -156 -44 -54 -107
-128 -140 -164 -34 -36 -69 -78 -79 -94 -10 -16 -44 -58 -75 -92 -57 -65 -105
-122 -212 -254 -87 -107 -168 -206 -211 -255 -21 -23 -38 -46 -38 -50 0 -4
-17 -27 -37 -50 -21 -23 -55 -64 -75 -91 -21 -27 -66 -84 -100 -128 -35 -43
-70 -88 -77 -100 -8 -11 -38 -50 -67 -86 -28 -36 -65 -84 -80 -106 -28 -40
-252 -330 -324 -420 -19 -24 -55 -69 -80 -100 -46 -56 -89 -111 -157 -197 -21
-26 -56 -69 -78 -95 -23 -26 -54 -65 -70 -87 -47 -64 -215 -273 -310 -384 -27
-32 -79 -96 -115 -141 -36 -46 -87 -109 -115 -141 -27 -32 -90 -106 -140 -164
-49 -59 -145 -167 -212 -241 -155 -171 -291 -351 -627 -827 -23 -32 -48 -69
-56 -82 -23 -37 -89 -132 -147 -212 -29 -40 -53 -74 -53 -77 0 -3 -46 -74
-103 -158 -56 -84 -156 -236 -221 -338 -65 -102 -131 -203 -146 -225 -36 -53
-365 -589 -420 -685 -24 -41 -56 -95 -71 -120 -15 -25 -55 -101 -89 -170 -141
-284 -194 -386 -211 -412 -11 -14 -19 -30 -19 -35 0 -13 -90 -146 -109 -160
-9 -7 -34 -18 -56 -24 -22 -6 -46 -16 -54 -22 -19 -16 -568 -22 -671 -8 -153
20 -176 28 -278 85 -63 36 -127 127 -141 200 -8 45 -7 454 2 504 15 83 195
414 490 897 17 28 37 64 46 80 9 17 50 88 91 158 41 70 89 151 105 181 64 115
136 243 159 281 12 22 34 60 48 85 14 25 41 70 60 100 19 30 45 73 57 95 12
22 27 49 34 60 36 58 89 144 147 240 66 109 388 595 460 695 22 30 59 82 82
115 22 33 55 76 72 96 17 20 51 64 76 98 25 34 56 76 70 94 14 19 40 53 58 77
17 24 50 64 73 89 59 67 260 308 285 342 19 27 54 66 286 327 46 51 106 121
135 155 29 34 79 94 113 132 33 39 91 108 130 155 38 47 92 112 120 145 84 99
142 170 200 245 30 39 73 92 95 119 22 26 58 72 80 101 22 29 58 74 80 101 22
26 56 69 75 95 19 25 51 66 70 89 87 108 100 124 100 133 0 4 12 19 26 33 14
13 50 58 80 99 30 41 72 98 94 125 22 28 48 61 57 75 10 14 38 51 63 83 25 33
54 71 65 87 11 15 40 53 65 85 25 31 59 74 75 95 17 21 45 56 62 77 18 21 57
70 88 108 73 93 149 184 210 253 28 32 68 80 90 107 21 28 66 80 100 116 33
37 78 89 100 117 55 69 198 233 271 312 33 36 68 78 78 94 10 16 44 57 75 92
73 81 218 256 326 394 49 62 112 140 165 202 22 25 40 49 40 53 0 4 15 24 33
45 17 21 49 60 70 86 21 27 52 68 70 91 17 22 63 81 100 130 257 335 371 483
400 518 18 22 51 64 72 93 22 30 60 78 85 107 25 30 65 80 90 111 25 31 59 72
76 92 17 21 63 78 102 127 39 50 94 117 122 150 27 33 80 96 117 141 38 44 93
111 123 148 30 37 82 98 115 135 91 103 192 232 274 351 13 19 49 71 79 115
116 166 140 203 202 305 45 74 103 147 193 245 72 77 139 154 151 172 11 17
66 81 121 141 55 60 130 145 167 188 191 223 271 284 396 305 30 4 57 11 61
15 8 9 500 -4 588 -16z m263 -2803 c19 -6 65 -29 101 -49 91 -51 245 -222 451
-500 26 -35 67 -90 92 -123 25 -33 54 -73 66 -90 12 -16 46 -64 77 -105 30
-41 66 -91 79 -110 13 -19 43 -62 66 -96 163 -233 301 -455 353 -569 16 -33
52 -111 82 -174 30 -63 61 -137 70 -163 8 -27 19 -51 24 -54 5 -3 9 -12 9 -20
0 -15 7 -32 72 -174 49 -106 180 -370 219 -440 95 -170 269 -510 269 -527 0
-6 11 -26 23 -45 13 -19 27 -46 31 -61 3 -15 24 -64 46 -109 22 -44 40 -86 40
-92 0 -6 6 -22 13 -36 7 -14 21 -54 31 -90 18 -65 36 -117 61 -176 16 -37 29
-41 190 -54 61 -6 126 -14 145 -19 19 -6 61 -12 92 -15 89 -7 218 -53 271 -97
54 -45 117 -177 133 -279 4 -25 10 -49 14 -55 4 -5 11 -32 14 -60 4 -27 11
-63 16 -80 5 -16 14 -66 20 -110 7 -44 13 -89 15 -100 7 -40 34 -191 41 -228
8 -47 34 -68 127 -103 90 -33 286 -109 351 -136 151 -62 402 -144 480 -159 33
-6 77 -17 96 -24 19 -7 62 -21 95 -31 92 -27 221 -102 284 -165 53 -53 151
-204 177 -272 7 -18 26 -70 44 -117 18 -47 36 -101 40 -120 5 -19 16 -60 25
-90 9 -30 22 -86 31 -125 8 -38 21 -99 30 -135 8 -36 22 -99 29 -140 8 -41 19
-93 24 -115 5 -22 14 -65 20 -95 32 -154 96 -373 138 -475 94 -225 200 -355
393 -482 47 -30 104 -68 128 -84 23 -16 47 -29 52 -29 14 0 130 -78 227 -153
61 -47 146 -144 182 -208 l31 -56 0 -220 c0 -215 -1 -223 -25 -270 -74 -148
-284 -301 -445 -325 -156 -24 -705 -8 -760 22 -10 6 -27 10 -38 10 -20 0 -220
62 -257 80 -11 5 -51 21 -88 35 -38 13 -89 35 -115 49 -26 13 -67 34 -92 47
-109 55 -360 272 -446 386 -30 40 -59 75 -64 78 -20 12 -144 188 -248 350 -7
11 -43 83 -81 160 -80 163 -124 288 -140 400 -7 44 -16 103 -22 130 -5 28 -14
127 -19 220 -5 94 -12 193 -15 220 -3 28 -10 99 -16 159 -11 125 -31 218 -52
249 -32 47 -122 130 -205 189 -103 73 -207 143 -235 159 -83 46 -76 45 -121
19 -69 -40 -217 -90 -371 -125 -33 -8 -81 -19 -107 -25 -30 -7 -137 -10 -300
-8 -209 3 -263 6 -308 21 -30 10 -80 25 -110 34 -30 9 -59 20 -65 23 -5 4 -46
26 -90 50 -107 57 -184 118 -280 220 -153 163 -266 366 -306 550 -6 30 -16 67
-21 81 -14 40 -28 291 -37 664 -5 187 -9 354 -10 372 -2 44 -85 139 -245 276
-209 180 -276 258 -333 386 -65 146 -86 260 -113 601 -29 362 -46 467 -86 531
-34 55 -86 83 -136 75 -102 -16 -217 -115 -273 -234 -45 -96 -105 -266 -125
-358 -5 -22 -13 -51 -18 -65 -6 -13 -15 -44 -22 -69 -61 -230 -143 -405 -266
-570 -58 -78 -195 -202 -325 -295 -62 -44 -130 -96 -153 -116 l-40 -36 34 -79
c18 -44 43 -101 55 -129 12 -27 32 -75 45 -105 12 -30 29 -69 36 -87 8 -17 14
-37 14 -45 0 -7 11 -40 25 -73 24 -58 25 -67 25 -310 0 -324 -3 -337 -129
-662 -17 -45 -40 -92 -49 -105 -10 -13 -26 -43 -37 -68 -10 -25 -25 -52 -32
-61 -7 -8 -13 -19 -13 -22 0 -4 -25 -47 -55 -96 -30 -49 -55 -91 -55 -93 0 -9
-195 -295 -242 -357 -27 -33 -48 -64 -48 -67 0 -6 -50 -67 -112 -139 -21 -23
-38 -47 -38 -52 0 -5 -12 -20 -26 -34 -15 -13 -61 -67 -104 -119 -43 -52 -89
-106 -104 -119 -14 -14 -26 -29 -26 -34 0 -5 -17 -29 -37 -53 -150 -171 -286
-421 -318 -584 -8 -40 -15 -67 -46 -160 -73 -226 -274 -450 -501 -559 -111
-53 -132 -55 -423 -56 -266 0 -271 0 -320 24 -27 14 -66 40 -88 60 -72 65 -71
59 -78 426 -7 312 -19 458 -40 479 -5 6 -23 2 -46 -11 -21 -12 -59 -32 -85
-46 -64 -34 -148 -100 -243 -192 -190 -183 -411 -359 -604 -480 -128 -80 -274
-218 -367 -347 -29 -39 -124 -195 -124 -203 0 -2 -16 -37 -35 -78 -19 -41 -35
-80 -35 -86 0 -6 -4 -19 -9 -29 -9 -15 -70 -210 -84 -267 -13 -50 -58 -164
-82 -207 -15 -26 -53 -71 -85 -101 -84 -76 -128 -87 -345 -87 -170 0 -174 0
-203 25 -16 14 -44 55 -61 92 -101 213 -112 232 -159 273 -78 70 -86 73 -129
60 -45 -13 -106 -36 -148 -55 -16 -8 -73 -32 -125 -54 -52 -22 -119 -52 -147
-66 -49 -23 -63 -25 -201 -25 -102 0 -152 4 -160 12 -8 8 -12 64 -12 187 l0
174 106 171 c59 94 114 182 123 195 9 13 21 31 26 40 6 8 35 54 66 101 30 47
58 92 62 100 4 8 23 35 42 60 19 25 39 54 44 66 5 11 20 33 33 50 13 16 50 67
81 114 31 47 72 108 92 135 20 28 44 61 53 75 50 75 169 228 243 314 19 22 60
73 91 111 69 88 186 205 353 354 71 64 134 119 140 124 5 4 40 32 78 62 37 29
147 113 245 186 416 311 518 388 541 408 13 12 27 21 30 21 3 0 31 24 63 53
31 28 94 85 140 126 358 319 608 661 786 1076 47 109 82 205 108 290 10 33 22
64 26 70 4 5 8 15 8 23 0 41 87 189 154 262 102 111 188 179 436 340 117 76
243 163 295 203 28 21 74 56 103 78 132 100 320 317 451 521 126 197 350 585
400 693 13 28 39 84 58 125 20 41 41 89 49 105 22 52 71 148 98 195 14 25 29
52 33 60 20 42 205 323 322 490 17 25 48 69 67 99 20 30 80 116 134 192 100
138 283 415 375 564 27 44 69 105 93 135 142 181 379 415 477 471 l50 29 180
0 c117 0 192 -5 215 -13z" />
    </g>
</svg>